# AST/ASF file generated using VICON BodyLanguage
# -----------------------------------------------
:version 1.10
:name VICON
:units
  mass 1.0
  length 0.45
  angle deg
:documentation
   .ast/.asf automatically generated from VICON data using
   VICON BodyBuilder and BodyLanguage model FoxedUp or BRILLIANT.MOD
:root
   order TX TY TZ RX RY RZ
   axis XYZ
   position 0 0 0  
   orientation 0 0 0 
:bonedata
  begin
     id 1 
     name lhipjoint
     direction 0.584852 -0.759097 0.285867 
     length 2.43633 
     axis 0 0 0  XYZ
  end
  begin
     id 2 
     name lfemur
     direction 0.34202 -0.939693 0  
     length 7.14704  
     axis 0 0 20  XYZ
    dof rx ry rz
    limits (-160.0 20.0)
           (-70.0 70.0)
           (-60.0 70.0)
  end
  begin
     id 3 
     name ltibia
     direction 0.342022 -0.939692 0   
     length 7.68483   
     axis 0 0 20   XYZ
    dof rx
    limits (-10.0 170.0)
  end
  begin
     id 4 
     name lfoot
     direction 0.0999605 -0.274639 0.956337   
     length 2.40452   
     axis -90 7.62852e-016 20   XYZ
    dof rx rz
    limits (-45.0 90.0)
           (-70.0 20.0)
  end
  begin
     id 5 
     name ltoes
     direction 1.53468e-011 -4.21881e-011 1   
     length 1.19837   
     axis -90 7.62852e-016 20   XYZ
    dof rx
    limits (-90.0 20.0)
  end
  begin
     id 6 
     name rhipjoint
     direction -0.569886 -0.769002 0.289597   
     length 2.40495  
     axis 0 0 0  XYZ 
  end
  begin
     id 7 
     name rfemur
     direction -0.34202 -0.939693 0   
     length 7.45086   
     axis 0 0 -20   XYZ
    dof rx ry rz
    limits (-160.0 20.0)
           (-70.0 70.0)
           (-70.0 60.0)
  end
  begin
     id 8 
     name rtibia
     direction -0.34202 -0.939693 0   
     length 7.76831   
     axis 0 0 -20   XYZ
    dof rx
    limits (-10.0 170.0)
 end
 begin
     id 9 
     name rfoot
     direction -0.0798572 -0.219406 0.97236   
     length 2.35911  
     axis -90 -7.62852e-016 -20   XYZ
    dof rx rz
    limits (-45.0 90.0)
           (-20.0 70.0)
  end
  begin
     id 10 
     name rtoes
     direction -1.53469e-011 -4.21728e-011 1   
     length 1.18261   
     axis -90 -7.62852e-016 -20   XYZ
    dof rx
    limits (-90.0 20.0)
  end
  begin
     id 11 
     name lowerback
     direction 0.0242088 0.999437 0.0232389   
     length 2.1561   
     axis 0 0 0   XYZ
    dof rx ry rz
    limits (-20.0 45.0)
           (-30.0 30.0)
           (-30.0 30.0)
  end
  begin
     id 12 
     name upperback
     direction -0.0356893 0.999013 -0.0264323   
     length 2.14431   
     axis 0 0 0   XYZ
    dof rx ry rz
    limits (-20.0 45.0)
           (-30.0 30.0)
           (-30.0 30.0)
  end
  begin
     id 13 
     name thorax
     direction -0.0472163 0.998194 -0.0371284   
     length 2.16169   
     axis 0 0 0   XYZ
    dof rx ry rz
    limits (-20.0 45.0)
           (-30.0 30.0)
           (-30.0 30.0)
  end
  begin
     id 14 
     name lowerneck
     direction 0.00863244 0.999921 0.00911972   
     length 1.58651   
     axis 0 0 0   XYZ
    dof rx ry rz
    limits (-20.0 45.0)
           (-30.0 30.0)
           (-30.0 30.0)
  end
  begin
     id 15 
     name upperneck
     direction 0.149523 0.979068 -0.138086   
     length 1.57486   
     axis 0 0 0   XYZ
    dof rx ry rz
    limits (-20.0 45.0)
           (-30.0 30.0)
           (-30.0 30.0)
  end
  begin
     id 16
     name head
     direction 0.0445219 0.997708 -0.0509576  
     length 1.6019  
     axis 0 0 0   XYZ
    dof rx ry rz
    limits (-20.0 45.0)
           (-30.0 30.0)
           (-30.0 30.0)
  end
  begin
     id 17 
     name lclavicle
     direction 0.911271 0.381667 -0.154644  
     length 3.80848  
     axis 0 0 0   XYZ
    dof ry rz
    limits (-20.0 10.0)
           (0.0 20.0)
  end
  begin
     id 18 
     name lhumerus
     direction 1 -4.49003e-011 2.1308e-027   
     length 5.19069   
     axis 180 -30 -90   XYZ
    dof rx ry rz
    limits (-60.0 90.0)
           (-90.0 90.0)
           (-90.0 90.0)
  end
  begin
     id 19
     name lradius
     direction 1 -4.48914e-011 4.01554e-027   
     length 3.30016   
     axis 180 -30 -90   XYZ
    dof rx
    limits (-10.0 170.0)
  end
  begin
     id 20
     name lwrist
     direction 1 -4.49003e-011 1.1934e-026   
     length 1.65008   
     axis -8.46377e-015 90 90   XYZ
    dof ry
    limits (-180.0 0.0)
 end
  begin
     id 21 
     name lhand
     direction 1 -4.49034e-011 2.38659e-026   
     length 0.707698   
     axis -1.52313e-014 90 90   XYZ
    dof rx rz
    limits (-90.0 90.0)
           (-45.0 45.0)
  end
  begin
     id 22 
     name lfingers
     direction 1 -4.48691e-011 4.77775e-026   
     length 0.570564   
     axis -3.04623e-014 90 90   XYZ
    dof rx
    limits (0.0 90.0)
  end
  begin
     id 23
     name lthumb
     direction 0.707107 -6.34832e-011 0.707107   
     length 0.819219   
     axis -90 45 -1.62303e-014   XYZ
    dof rx rz
    limits (-45.0 45.0)
           (-45.0 45.0)
  end
  begin
     id 24 
     name rclavicle
     direction -0.815579 0.573708 -0.0754329   
     length 3.54371  
     axis 0 0 0   XYZ 
    dof ry rz
    limits (-10.0 20.0)
           (-20.0 0.0)
  end
  begin
     id 25 
     name rhumerus
     direction -1 -4.48956e-011 3.05351e-028  
     length 5.23924   
     axis 180 30 90   XYZ
    dof rx ry rz
    limits (-90.0 60.0)
           (-90.0 90.0)
           (-90.0 90.0)
  end
  begin
     id 26 
     name rradius
     direction -1 -4.49013e-011 3.53849e-027   
     length 3.32953   
     axis 180 30 90   XYZ
    dof rx
    limits (-10.0 170.0)
  end
  begin
     id 27 
     name rwrist
     direction -1 -4.48901e-011 1.19374e-026   
     length 1.66477   
     axis -8.46377e-015 -90 -90   XYZ
    dof ry
    limits (-180.0 0.0)
  end
  begin
     id 28
     name rhand
     direction -1 -4.48877e-011 2.38764e-026   
     length 0.607414   
     axis -1.52313e-014 -90 -90   XYZ
    dof rx rz
    limits (-90.0 90.0)
           (-45.0 45.0)
  end
  begin
     id 29
     name rfingers
     direction -1 -4.48882e-011 4.77521e-026   
     length 0.489712   
     axis -3.04623e-014 -90 -90   XYZ
    dof rx
    limits (0.0 90.0)
  end
  begin
     id 30
     name rthumb
     direction -0.707107 -6.34974e-011 0.707107   
     length 0.703132   
     axis -90 -45 1.62303e-014   XYZ
    dof rx rz
    limits (-45.0 45.0)
           (-45.0 45.0)
  end
:hierarchy
  begin
    root lhipjoint rhipjoint lowerback
    lhipjoint lfemur
    lfemur ltibia
    ltibia lfoot
    lfoot ltoes
    rhipjoint rfemur
    rfemur rtibia
    rtibia rfoot
    rfoot rtoes
    lowerback upperback
    upperback thorax
    thorax lowerneck lclavicle rclavicle
    lowerneck upperneck
    upperneck head
    lclavicle lhumerus
    lhumerus lradius
    lradius lwrist
    lwrist lhand lthumb
    lhand lfingers
    rclavicle rhumerus
    rhumerus rradius
    rradius rwrist
    rwrist rhand rthumb
    rhand rfingers
  end

#!OML:ASF E:\VariousWalksJay\Project 1\Capture day 1\Session 1\Actor2.ASF
:FULLY-SPECIFIED
:DEGREES
627
root 4.96514 14.1475 5.62007 173.771 -57.7378 -183.221
lowerback 18.2308 3.02901 4.47654
upperback 14.4263 2.75398 -5.65272
thorax 6.1898 1.32468 -9.13599
lowerneck 5.44462 6.11182 -2.10304
upperneck 3.2045 7.64074 12.0147
head -0.543083 3.57586 4.10045
rclavicle 3.18055e-015 -5.80451e-014
rhumerus -64.7766 18.3751 -123.257
rradius 60.986
rwrist 10.7543
rhand -3.14881 11.766
rfingers 7.12502
rthumb 22.5711 -16.9345
lclavicle 3.18055e-015 -5.80451e-014
lhumerus -74.0315 -30.3195 133.025
lradius 61.9064
lwrist 3.32065
lhand 0.00438836 -39.0366
lfingers 7.12502
lthumb 25.5946 -10.7364
rfemur -50.8155 2.20571 2.56079
rtibia 33.3191
rfoot -14.4734 -20.5715
rtoes -3.73353
lfemur -6.12478 27.6788 -7.07798
ltibia 77.0921
lfoot -42.1258 21.3432
ltoes -24.046
628
root 4.91127 14.1445 5.50351 173.869 -57.2675 -183.284
lowerback 18.2037 3.00108 4.43386
upperback 14.4541 2.7 -5.58834
thorax 6.21515 1.28647 -9.03108
lowerneck 5.45667 6.17664 -1.95529
upperneck 3.17021 7.74204 11.7666
head -0.544409 3.62953 3.9799
rclavicle 7.4743e-014 3.97569e-014
rhumerus -64.8681 18.3379 -123.354
rradius 60.9756
rwrist 9.75662
rhand -2.99939 11.27
rfingers 7.12502
rthumb 22.7146 -17.413
lclavicle 7.4743e-014 3.97569e-014
lhumerus -74.0875 -30.2644 133.117
lradius 61.7894
lwrist 3.40359
lhand 0.326588 -39.0023
lfingers 7.12502
lthumb 25.9032 -10.7468
rfemur -51.1229 2.56692 1.77105
rtibia 34.442
rfoot -13.4802 -19.735
rtoes -3.45362
lfemur -5.31656 27.5012 -6.77209
ltibia 76.4927
lfoot -42.2032 21.7246
ltoes -23.8859
629
root 4.85757 14.1435 5.38553 174.161 -56.7957 -183.468
lowerback 18.1386 2.97208 4.35118
upperback 14.4665 2.64249 -5.54465
thorax 6.23963 1.2451 -8.92415
lowerneck 5.44705 6.24877 -1.82672
upperneck 3.13372 7.85382 11.4915
head -0.542491 3.68989 3.85448
rclavicle 9.50191e-014 -1.17681e-013
rhumerus -64.9327 18.2138 -123.375
rradius 60.9747
rwrist 8.85342
rhand -2.89862 10.785
rfingers 7.12502
rthumb 22.8113 -17.8862
lclavicle 9.50191e-014 -1.17681e-013
lhumerus -74.0964 -30.2292 133.176
lradius 61.6629
lwrist 3.43028
lhand 0.773366 -38.9722
lfingers 7.12502
lthumb 26.3309 -10.78
rfemur -51.4536 2.97389 0.854477
rtibia 35.2877
rfoot -12.3794 -18.7958
rtoes -3.22862
lfemur -4.61074 27.264 -6.64433
ltibia 75.8388
lfoot -42.2617 22.1316
ltoes -23.7157
630
root 4.80382 14.1438 5.26586 174.6 -56.2993 -183.712
lowerback 18.0212 2.9443 4.25118
upperback 14.4658 2.58755 -5.51497
thorax 6.27632 1.2059 -8.82124
lowerneck 5.41171 6.32662 -1.70101
upperneck 3.08498 7.97569 11.1806
head -0.538542 3.75678 3.71823
rclavicle 4.65156e-014 9.54166e-014
rhumerus -64.9637 18.0317 -123.321
rradius 60.9784
rwrist 8.10827
rhand -2.83677 10.3495
rfingers 7.12502
rthumb 22.8706 -18.3143
lclavicle 4.65156e-014 9.54166e-014
lhumerus -74.0601 -30.2089 133.205
lradius 61.5263
lwrist 3.4241
lhand 1.29567 -38.95
lfingers 7.12502
lthumb 26.8308 -10.8336
rfemur -51.8377 3.41495 -0.127491
rtibia 35.9229
rfoot -11.2187 -17.7211
rtoes -2.82411
lfemur -3.99961 26.9879 -6.65141
ltibia 75.1358
lfoot -42.3181 22.5571
ltoes -23.5255
631
root 4.7502 14.1445 5.14398 175.126 -55.759 -183.954
lowerback 17.8679 2.91188 4.15594
upperback 14.4466 2.53064 -5.49506
thorax 6.31128 1.16771 -8.73048
lowerneck 5.34986 6.41194 -1.58444
upperneck 3.02153 8.10953 10.843
head -0.534011 3.83081 3.57565
rclavicle -2.98177e-014 4.37326e-014
rhumerus -64.9802 17.84 -123.221
rradius 60.9847
rwrist 7.58146
rhand -2.77758 9.99738
rfingers 7.12502
rthumb 22.9274 -18.6594
lclavicle -2.98177e-014 4.37326e-014
lhumerus -73.9895 -30.1783 133.208
lradius 61.3908
lwrist 3.41275
lhand 1.81649 -38.9045
lfingers 7.12502
lthumb 27.3291 -10.8655
rfemur -52.2949 3.86514 -1.08955
rtibia 36.4321
rfoot -9.96187 -16.5207
rtoes -2.42858
lfemur -3.46092 26.7015 -6.73151
ltibia 74.3878
lfoot -42.3901 22.9894
ltoes -23.3135
632
root 4.69718 14.1447 5.01875 175.647 -55.1589 -184.102
lowerback 17.691 2.88104 4.10435
upperback 14.4102 2.48456 -5.47176
thorax 6.34458 1.13969 -8.66166
lowerneck 5.27532 6.49088 -1.44696
upperneck 2.92671 8.23942 10.4722
head -0.533711 3.90332 3.41907
rclavicle -4.77083e-015 -3.4191e-014
rhumerus -64.9727 17.6485 -123.086
rradius 60.9896
rwrist 7.31857
rhand -2.71906 9.7382
rfingers 7.12502
rthumb 22.9836 -18.9116
lclavicle -4.77083e-015 -3.4191e-014
lhumerus -73.9174 -30.1436 133.207
lradius 61.2612
lwrist 3.4243
lhand 2.27546 -38.8386
lfingers 7.12502
lthumb 27.768 -10.8696
rfemur -52.8344 4.31482 -1.93354
rtibia 36.9044
rfoot -8.62034 -15.2139
rtoes -2.08515
lfemur -2.96092 26.4342 -6.78913
ltibia 73.5984
lfoot -42.4877 23.4084
ltoes -23.0799
633
root 4.64477 14.1442 4.88881 176.136 -54.4954 -184.14
lowerback 17.5001 2.84897 4.07953
upperback 14.3611 2.44207 -5.43868
thorax 6.37288 1.11571 -8.59729
lowerneck 5.18868 6.56568 -1.29698
upperneck 2.79278 8.36855 10.0681
head -0.540764 3.97566 3.25011
rclavicle -9.10434e-014 2.14687e-014
rhumerus -64.9572 17.5105 -122.938
rradius 60.9921
rwrist 7.32164
rhand -2.63155 9.5907
rfingers 7.12502
rthumb 23.0675 -19.0486
lclavicle -9.10434e-014 2.14687e-014
lhumerus -73.8401 -30.083 133.198
lradius 61.1532
lwrist 3.4666
lhand 2.6201 -38.7555
lfingers 7.12502
lthumb 28.0975 -10.8401
rfemur -53.4595 4.74973 -2.6164
rtibia 37.4309
rfoot -7.24083 -13.825
rtoes -1.79302
lfemur -2.46362 26.2055 -6.78582
ltibia 72.7593
lfoot -42.6143 23.8127
ltoes -22.8411
634
root 4.59338 14.1429 4.75406 176.516 -53.7889 -183.992
lowerback 17.3204 2.80729 4.14617
upperback 14.2967 2.40034 -5.39206
thorax 6.38503 1.09965 -8.57134
lowerneck 5.10589 6.62464 -1.11989
upperneck 2.60522 8.48216 9.64789
head -0.561779 4.03929 3.07192
rclavicle -1.32391e-013 1.52667e-013
rhumerus -64.9231 17.4127 -122.798
rradius 60.9931
rwrist 7.55714
rhand -2.51112 9.54571
rfingers 7.12502
rthumb 23.1831 -19.0791
lclavicle -1.32391e-013 1.52667e-013
lhumerus -73.7981 -30.0178 133.199
lradius 61.0776
lwrist 3.56704
lhand 2.83254 -38.6769
lfingers 7.12502
lthumb 28.3005 -10.795
rfemur -54.1529 5.14235 -3.06182
rtibia 38.0823
rfoot -5.8882 -12.3832
rtoes -1.60147
lfemur -1.95304 26.0116 -6.64762
ltibia 71.8701
lfoot -42.7658 24.1819
ltoes -22.5922
635
root 4.54216 14.1412 4.61336 176.795 -53.0479 -183.694
lowerback 17.1602 2.75501 4.26955
upperback 14.2277 2.35119 -5.32943
thorax 6.38404 1.08342 -8.56038
lowerneck 5.02927 6.67529 -0.931589
upperneck 2.35498 8.59019 9.21208
head -0.6014 4.09894 2.88712
rclavicle -2.82274e-014 6.36111e-014
rhumerus -64.8794 17.3707 -122.676
rradius 60.9895
rwrist 7.97127
rhand -2.35472 9.58617
rfingers 7.12502
rthumb 23.3331 -19.0197
lclavicle -2.82274e-014 6.36111e-014
lhumerus -73.7794 -29.9372 133.201
lradius 61.0446
lwrist 3.72315
lhand 2.90507 -38.6189
lfingers 7.12502
lthumb 28.3698 -10.7485
rfemur -54.8831 5.48939 -3.27412
rtibia 38.9017
rfoot -4.60953 -10.9272
rtoes -1.55133
lfemur -1.38138 25.8514 -6.37395
ltibia 70.9151
lfoot -42.9414 24.5147
ltoes -22.3463
636
root 4.49155 14.139 4.46604 176.972 -52.3114 -183.263
lowerback 17.0383 2.68934 4.45601
upperback 14.1545 2.29157 -5.25703
thorax 6.36107 1.06594 -8.57544
lowerneck 4.97724 6.71212 -0.716151
upperneck 2.03323 8.68556 8.7764
head -0.665197 4.14999 2.69773
rclavicle 5.1684e-015 -1.19271e-014
rhumerus -64.8246 17.3525 -122.589
rradius 60.9884
rwrist 8.46383
rhand -2.16714 9.67943
rfingers 7.12502
rthumb 23.5131 -18.9035
lclavicle 5.1684e-015 -1.19271e-014
lhumerus -73.8164 -29.8658 133.212
lradius 61.0515
lwrist 3.91958
lhand 2.85177 -38.608
lfingers 7.12502
lthumb 28.3189 -10.7292
rfemur -55.6078 5.79065 -3.27675
rtibia 39.8928
rfoot -3.44964 -9.51907
rtoes -1.56212
lfemur -0.744642 25.6923 -5.96774
ltibia 69.8915
lfoot -43.1231 24.8066
ltoes -22.1046
637
root 4.44124 14.137 4.31194 177.041 -51.5979 -182.694
lowerback 16.9532 2.60318 4.71602
upperback 14.0795 2.2135 -5.17064
thorax 6.3185 1.04389 -8.61702
lowerneck 4.94281 6.7431 -0.485719
upperneck 1.64825 8.77714 8.34177
head -0.750423 4.19727 2.50632
rclavicle 3.18055e-015 2.38542e-014
rhumerus -64.7596 17.3436 -122.537
rradius 60.9863
rwrist 8.93584
rhand -1.96468 9.7831
rfingers 7.12502
rthumb 23.7073 -18.7748
lclavicle 3.18055e-015 2.38542e-014
lhumerus -73.8976 -29.8144 133.226
lradius 61.0906
lwrist 4.13077
lhand 2.68462 -38.6642
lfingers 7.12502
lthumb 28.1592 -10.7589
rfemur -56.2921 6.06163 -3.08736
rtibia 41.0195
rfoot -2.44943 -8.18385
rtoes -1.7516
lfemur -0.0440193 25.5188 -5.42278
ltibia 68.7973
lfoot -43.2849 25.0607
ltoes -21.8825
638
root 4.39107 14.1353 4.15085 177.064 -50.9368 -182.074
lowerback 16.9009 2.50239 4.99803
upperback 14.0143 2.11704 -5.07195
thorax 6.2673 1.01275 -8.65702
lowerneck 4.91065 6.76883 -0.250173
upperneck 1.21123 8.86396 7.90195
head -0.851029 4.24123 2.31337
rclavicle 1.34776e-013 -6.44062e-014
rhumerus -64.67 17.3185 -122.5
rradius 60.976
rwrist 9.3028
rhand -1.76508 9.85357
rfingers 7.12502
rthumb 23.8987 -18.6794
lclavicle 1.34776e-013 -6.44062e-014
lhumerus -74.0096 -29.8086 133.254
lradius 61.1432
lwrist 4.32641
lhand 2.42383 -38.7912
lfingers 7.12502
lthumb 27.9099 -10.8452
rfemur -56.8899 6.30948 -2.79457
rtibia 42.2134
rfoot -1.62734 -6.9376
rtoes -2.06874
lfemur 0.714433 25.303 -4.80426
ltibia 67.635
lfoot -43.4067 25.279
ltoes -21.6747
639
root 4.34126 14.1343 3.9828 177.069 -50.3401 -181.436
lowerback 16.8841 2.38468 5.28582
upperback 13.9522 1.99865 -4.96998
thorax 6.19689 0.969523 -8.69558
lowerneck 4.8709 6.79731 -0.00708124
upperneck 0.748285 8.95377 7.45978
head -0.957475 4.28637 2.1199
rclavicle -4.21423e-014 -5.80451e-014
rhumerus -64.56 17.252 -122.48
rradius 60.9455
rwrist 9.50887
rhand -1.58535 9.87801
rfingers 7.12502
rthumb 24.071 -18.6323
lclavicle -4.21423e-014 -5.80451e-014
lhumerus -74.1367 -29.8467 133.28
lradius 61.1836
lwrist 4.48219
lhand 2.08626 -38.9942
lfingers 7.12502
lthumb 27.5871 -10.9962
rfemur -57.3734 6.56163 -2.4592
rtibia 43.384
rfoot -1.00071 -5.78906
rtoes -2.44405
lfemur 1.50665 25.0339 -4.14566
ltibia 66.4129
lfoot -43.4629 25.4666
ltoes -21.4773
640
root 4.29201 14.1346 3.80739 177.092 -49.8202 -180.814
lowerback 16.8826 2.25543 5.54998
upperback 13.8986 1.86177 -4.86319
thorax 6.12185 0.914 -8.71347
lowerneck 4.80068 6.82971 0.237839
upperneck 0.278934 9.04579 7.00737
head -1.05953 4.33354 1.92542
rclavicle -7.07673e-014 -6.12257e-014
rhumerus -64.4152 17.1295 -122.458
rradius 60.886
rwrist 9.54019
rhand -1.47523 9.81895
rfingers 7.12502
rthumb 24.1766 -18.6773
lclavicle -7.07673e-014 -6.12257e-014
lhumerus -74.2563 -29.9414 133.302
lradius 61.1853
lwrist 4.57032
lhand 1.67859 -39.2954
lfingers 7.12502
lthumb 27.1972 -11.2357
rfemur -57.7183 6.82931 -2.12658
rtibia 44.4358
rfoot -0.571009 -4.71746
rtoes -2.98323
lfemur 2.30625 24.7068 -3.4809
ltibia 65.1424
lfoot -43.4293 25.6312
ltoes -21.3001
641
root 4.24298 14.1359 3.62453 177.195 -49.3742 -180.28
lowerback 16.8839 2.12054 5.74001
upperback 13.8486 1.70895 -4.76251
thorax 6.04027 0.843926 -8.69319
lowerneck 4.68574 6.8726 0.482666
upperneck -0.175578 9.14652 6.53603
head -1.14785 4.38693 1.72811
rclavicle 1.19271e-014 -3.65764e-014
rhumerus -64.2421 16.9461 -122.423
rradius 60.7923
rwrist 9.40514
rhand -1.41469 9.68157
rfingers 7.12502
rthumb 24.2347 -18.807
lclavicle 1.19271e-014 -3.65764e-014
lhumerus -74.3537 -30.0786 133.311
lradius 61.1368
lwrist 4.58058
lhand 1.20304 -39.6581
lfingers 7.12502
lthumb 26.7422 -11.528
rfemur -57.913 7.11698 -1.85778
rtibia 45.2846
rfoot -0.349558 -3.69751
rtoes -3.51717
lfemur 3.09325 24.3317 -2.87254
ltibia 63.8318
lfoot -43.2955 25.7872
ltoes -21.1549
